<svg width="233" height="233" viewBox="0 0 233 233" fill="none" xmlns="http://www.w3.org/2000/svg">
<rect width="233" height="233" fill="#1F69FF"/>
<path fill-rule="evenodd" clip-rule="evenodd" d="M115.687 73.0938L113.392 62.2198L12 48L44.5456 97.3512L51.2217 98.1877L68.329 126L83.7673 127.882L116.313 204L148.024 127.882L163.88 126.627L180.987 98.1877L186.828 97.3512L220 48L118.399 62.2198L115.687 73.0938Z" fill="white"/>
<path fill-rule="evenodd" clip-rule="evenodd" d="M100.033 76.0413L42.012 65.5657L53.6996 83.5837L87.9278 88.193L91.2671 99.9257L68.7266 97.8305L77.4924 112.496L95.65 113.963L116.521 175.979L137.183 113.963L155.549 112.496L164.315 97.8305L141.775 99.9257L145.114 88.193L179.342 83.5837L191.238 65.5657L132.591 76.0413L116.312 138.057L100.033 76.0413Z" fill="#1F69FF"/>
</svg>
